ffmpeg started on 2016-11-30 at 18:30:21
Report written to "Output/x264/results/ffmpeg/old_town_cross_2160p50fast7000k.log"
Command line:
Tools/ffmpeg/ffmpeg -benchmark -y -i Input/y4m/old_town_cross_2160p50.y4m -c:v libx264 -preset fast -b:v 7000k -an Output/x264/encoded/old_town_cross_2160p50fast7000k.mkv
ffmpeg version N-82227-gdb23fde Copyright (c) 2000-2016 the FFmpeg developers
  built with gcc 5.4.0 (Ubuntu 5.4.0-6ubuntu1~16.04.2) 20160609
  configuration: --prefix=/home/jaroslav/ffmpeg_build --pkg-config-flags=--static --extra-cflags=-I/home/jaroslav/ffmpeg_build/include --extra-ldflags=-L/home/jaroslav/ffmpeg_build/lib --bindir=/home/jaroslav/bin --enable-gpl --enable-libass --enable-libfdk-aac --enable-libfreetype --enable-libmp3lame --enable-libopus --enable-libtheora --enable-libvorbis --enable-libvpx --enable-libx264 --enable-libx265 --enable-nvenc --enable-libmfx --enable-libxvid --enable-libgsm --enable-libopencore-amrnb --enable-version3 --enable-nonfree
  libavutil      55. 35.100 / 55. 35.100
  libavcodec     57. 66.101 / 57. 66.101
  libavformat    57. 57.100 / 57. 57.100
  libavdevice    57.  2.100 / 57.  2.100
  libavfilter     6. 66.100 /  6. 66.100
  libswscale      4.  3.100 /  4.  3.100
  libswresample   2.  4.100 /  2.  4.100
  libpostproc    54.  2.100 / 54.  2.100
Input #0, yuv4mpegpipe, from 'Input/y4m/old_town_cross_2160p50.y4m':
  Duration: 00:00:10.00, start: 0.000000, bitrate: 4976642 kb/s
    Stream #0:0: Video: rawvideo (I420 / 0x30323449), yuv420p(progressive), 3840x2160, SAR 1:1 DAR 16:9, 50 fps, 50 tbr, 50 tbn, 50 tbc
[libx264 @ 0x3758120] using SAR=1/1
[libx264 @ 0x3758120] using cpu capabilities: MMX2 SSE2Fast SSSE3 SSE4.2 AVX FMA3 AVX2 LZCNT BMI2
[libx264 @ 0x3758120] profile High, level 5.2
[libx264 @ 0x3758120] 264 - core 148 - H.264/MPEG-4 AVC codec - Copyleft 2003-2016 - http://www.videolan.org/x264.html - options: cabac=1 ref=2 deblock=1:0:0 analyse=0x3:0x113 me=hex subme=6 psy=1 psy_rd=1.00:0.00 mixed_ref=1 me_range=16 chroma_me=1 trellis=1 8x8dct=1 cqm=0 deadzone=21,11 fast_pskip=1 chroma_qp_offset=-2 threads=6 lookahead_threads=1 sliced_threads=0 nr=0 decimate=1 interlaced=0 bluray_compat=0 constrained_intra=0 bframes=3 b_pyramid=2 b_adapt=1 b_bias=0 direct=1 weightb=1 open_gop=0 weightp=1 keyint=250 keyint_min=25 scenecut=40 intra_refresh=0 rc_lookahead=30 rc=abr mbtree=1 bitrate=7000 ratetol=1.0 qcomp=0.60 qpmin=0 qpmax=69 qpstep=4 ip_ratio=1.40 aq=1:1.00
Output #0, matroska, to 'Output/x264/encoded/old_town_cross_2160p50fast7000k.mkv':
  Metadata:
    encoder         : Lavf57.57.100
    Stream #0:0: Video: h264 (libx264) (H264 / 0x34363248), yuv420p, 3840x2160 [SAR 1:1 DAR 16:9], q=-1--1, 7000 kb/s, 50 fps, 1k tbn, 50 tbc
    Metadata:
      encoder         : Lavc57.66.101 libx264
    Side data:
      cpb: bitrate max/min/avg: 0/0/7000000 buffer size: 0 vbv_delay: -1
Stream mapping:
  Stream #0:0 -> #0:0 (rawvideo (native) -> h264 (libx264))
Press [q] to stop, [?] for help
frame=   37 fps= 20 q=0.0 size=       0kB time=00:00:00.00 bitrate=N/A speed=   0x    frame=   46 fps= 19 q=42.0 size=       1kB time=00:00:00.06 bitrate=  96.3kbits/s speed=0.0249x    frame=   57 fps= 19 q=38.0 size=       1kB time=00:00:00.28 bitrate=  20.9kbits/s speed=0.0951x    frame=   66 fps= 18 q=37.0 size=       1kB time=00:00:00.46 bitrate=  12.7kbits/s speed=0.126x    frame=   75 fps= 18 q=36.0 size=       1kB time=00:00:00.64 bitrate=   9.2kbits/s speed=0.154x    frame=   84 fps= 18 q=36.0 size=       1kB time=00:00:00.82 bitrate=   7.2kbits/s speed=0.176x    frame=   92 fps= 18 q=36.0 size=       1kB time=00:00:00.98 bitrate=   6.0kbits/s speed=0.188x    frame=  100 fps= 17 q=35.0 size=       1kB time=00:00:01.14 bitrate=   5.1kbits/s speed=0.199x    frame=  108 fps= 17 q=35.0 size=       1kB time=00:00:01.30 bitrate=   4.5kbits/s speed=0.208x    frame=  118 fps= 17 q=35.0 size=       1kB time=00:00:01.50 bitrate=   3.9kbits/s speed=0.219x    frame=  128 fps= 17 q=35.0 size=       1kB time=00:00:01.70 bitrate=   3.5kbits/s speed=0.229x    frame=  136 fps= 17 q=35.0 size=       1kB time=00:00:01.86 bitrate=   3.2kbits/s speed=0.231x    frame=  145 fps= 17 q=35.0 size=       1kB time=00:00:02.04 bitrate=   2.9kbits/s speed=0.238x    frame=  152 fps= 17 q=35.0 size=       1kB time=00:00:02.18 bitrate=   2.7kbits/s speed=0.241x    frame=  160 fps= 17 q=35.0 size=       1kB time=00:00:02.34 bitrate=   2.5kbits/s speed=0.245x    frame=  169 fps= 17 q=35.0 size=       1kB time=00:00:02.52 bitrate=   2.3kbits/s speed=0.249x    frame=  177 fps= 17 q=35.0 size=       1kB time=00:00:02.68 bitrate=   2.2kbits/s speed=0.252x    frame=  186 fps= 17 q=35.0 size=       1kB time=00:00:02.86 bitrate=   2.1kbits/s speed=0.257x    frame=  193 fps= 17 q=35.0 size=       1kB time=00:00:03.00 bitrate=   2.0kbits/s speed=0.257x    frame=  201 fps= 16 q=35.0 size=       1kB time=00:00:03.16 bitrate=   1.9kbits/s speed=0.259x    frame=  210 fps= 17 q=35.0 size=       1kB time=00:00:03.34 bitrate=   1.8kbits/s speed=0.263x    frame=  219 fps= 16 q=35.0 size=       1kB time=00:00:03.52 bitrate=   1.7kbits/s speed=0.265x    frame=  227 fps= 16 q=35.0 size=       1kB time=00:00:03.68 bitrate=   1.6kbits/s speed=0.266x    frame=  235 fps= 16 q=35.0 size=       1kB time=00:00:03.84 bitrate=   1.5kbits/s speed=0.268x    frame=  245 fps= 16 q=35.0 size=       1kB time=00:00:04.04 bitrate=   1.5kbits/s speed=0.272x    frame=  252 fps= 16 q=35.0 size=       1kB time=00:00:04.18 bitrate=   1.4kbits/s speed=0.259x    frame=  254 fps= 15 q=35.0 size=       1kB time=00:00:04.22 bitrate=   1.4kbits/s speed=0.252x    frame=  256 fps= 15 q=35.0 size=       1kB time=00:00:04.26 bitrate=   1.4kbits/s speed=0.245x    frame=  261 fps= 15 q=35.0 size=       1kB time=00:00:04.36 bitrate=   1.3kbits/s speed=0.243x    frame=  266 fps= 14 q=35.0 size=       1kB time=00:00:04.46 bitrate=   1.3kbits/s speed=0.24x    frame=  271 fps= 14 q=35.0 size=       1kB time=00:00:04.56 bitrate=   1.3kbits/s speed=0.238x    frame=  276 fps= 14 q=35.0 size=       1kB time=00:00:04.66 bitrate=   1.3kbits/s speed=0.236x    frame=  281 fps= 14 q=35.0 size=       1kB time=00:00:04.76 bitrate=   1.2kbits/s speed=0.234x    frame=  286 fps= 14 q=36.0 size=       1kB time=00:00:04.86 bitrate=   1.2kbits/s speed=0.233x    frame=  295 fps= 14 q=36.0 size=    4106kB time=00:00:05.04 bitrate=6673.2kbits/s speed=0.235x    frame=  304 fps= 14 q=36.0 size=    4106kB time=00:00:05.22 bitrate=6443.1kbits/s speed=0.238x    frame=  311 fps= 14 q=36.0 size=    4106kB time=00:00:05.36 bitrate=6274.9kbits/s speed=0.238x    frame=  320 fps= 14 q=36.0 size=    4106kB time=00:00:05.54 bitrate=6071.0kbits/s speed=0.241x    frame=  328 fps= 14 q=36.0 size=    4106kB time=00:00:05.70 bitrate=5900.7kbits/s speed=0.242x    frame=  337 fps= 14 q=36.0 size=    4106kB time=00:00:05.88 bitrate=5720.1kbits/s speed=0.243x    frame=  346 fps= 14 q=36.0 size=    4106kB time=00:00:06.06 bitrate=5550.2kbits/s speed=0.246x    frame=  355 fps= 14 q=35.0 size=    4106kB time=00:00:06.24 bitrate=5390.1kbits/s speed=0.247x    frame=  362 fps= 14 q=35.0 size=    4106kB time=00:00:06.38 bitrate=5271.8kbits/s speed=0.248x    frame=  372 fps= 14 q=35.0 size=    4106kB time=00:00:06.58 bitrate=5111.6kbits/s speed=0.25x    frame=  381 fps= 14 q=35.0 size=    4106kB time=00:00:06.76 bitrate=4975.5kbits/s speed=0.251x    frame=  389 fps= 14 q=35.0 size=    4106kB time=00:00:06.92 bitrate=4860.5kbits/s speed=0.252x    frame=  398 fps= 14 q=35.0 size=    4106kB time=00:00:07.10 bitrate=4737.3kbits/s speed=0.253x    frame=  406 fps= 14 q=35.0 size=    4106kB time=00:00:07.26 bitrate=4632.9kbits/s speed=0.254x    frame=  416 fps= 14 q=35.0 size=    4106kB time=00:00:07.46 bitrate=4508.7kbits/s speed=0.256x    frame=  425 fps= 14 q=35.0 size=    4106kB time=00:00:07.64 bitrate=4402.5kbits/s speed=0.257x    frame=  433 fps= 14 q=35.0 size=    4106kB time=00:00:07.80 bitrate=4312.2kbits/s speed=0.258x    frame=  442 fps= 14 q=35.0 size=    4106kB time=00:00:07.98 bitrate=4215.0kbits/s speed=0.259x    frame=  450 fps= 14 q=35.0 size=    4106kB time=00:00:08.14 bitrate=4132.1kbits/s speed=0.26x    frame=  458 fps= 14 q=35.0 size=    4106kB time=00:00:08.30 bitrate=4052.5kbits/s speed=0.261x    frame=  466 fps= 14 q=35.0 size=    4106kB time=00:00:08.46 bitrate=3975.8kbits/s speed=0.261x    frame=  475 fps= 14 q=35.0 size=    4106kB time=00:00:08.64 bitrate=3893.0kbits/s speed=0.262x    frame=  482 fps= 14 q=35.0 size=    4106kB time=00:00:08.78 bitrate=3831.0kbits/s speed=0.263x    frame=  490 fps= 14 q=35.0 size=    4106kB time=00:00:08.94 bitrate=3762.4kbits/s speed=0.263x    frame=  493 fps= 14 q=35.0 size=    4106kB time=00:00:09.00 bitrate=3737.3kbits/s speed=0.259x    frame=  495 fps= 14 q=35.0 size=    4106kB time=00:00:09.04 bitrate=3720.8kbits/s speed=0.255x    frame=  497 fps= 14 q=35.0 size=    4106kB time=00:00:09.08 bitrate=3704.4kbits/s speed=0.252x    frame=  500 fps= 13 q=-1.0 Lsize=    8623kB time=00:00:09.94 bitrate=7106.3kbits/s speed=0.259x    
video:8619kB audio:0kB subtitle:0kB other streams:0kB global headers:0kB muxing overhead: 0.051417%
bench: utime=126.176s
bench: maxrss=1606856kB
[libx264 @ 0x3758120] frame I:3     Avg QP:31.68  size:246468
[libx264 @ 0x3758120] frame P:183   Avg QP:33.41  size: 24756
[libx264 @ 0x3758120] frame B:314   Avg QP:35.29  size: 11323
[libx264 @ 0x3758120] consecutive B-frames: 16.0%  0.8%  0.0% 83.2%
[libx264 @ 0x3758120] mb I  I16..4: 12.3% 73.4% 14.3%
[libx264 @ 0x3758120] mb P  I16..4:  0.1%  0.1%  0.0%  P16..4: 24.0%  1.8%  1.8%  0.0%  0.0%    skip:72.0%
[libx264 @ 0x3758120] mb B  I16..4:  0.3%  0.2%  0.0%  B16..8: 12.6%  0.4%  0.0%  direct: 7.9%  skip:78.6%  L0:34.1% L1:65.6% BI: 0.3%
[libx264 @ 0x3758120] final ratefactor: 27.50
[libx264 @ 0x3758120] 8x8 transform intra:60.9% inter:87.9%
[libx264 @ 0x3758120] coded y,uvDC,uvAC intra: 40.7% 50.0% 24.6% inter: 4.1% 4.6% 0.0%
[libx264 @ 0x3758120] i16 v,h,dc,p: 46% 32% 13%  9%
[libx264 @ 0x3758120] i8 v,h,dc,ddl,ddr,vr,hd,vl,hu: 19% 19% 36%  4%  4%  4%  6%  3%  5%
[libx264 @ 0x3758120] i4 v,h,dc,ddl,ddr,vr,hd,vl,hu: 24% 29% 11%  6%  6%  6%  9%  4%  6%
[libx264 @ 0x3758120] i8c dc,h,v,p: 71% 13% 14%  2%
[libx264 @ 0x3758120] Weighted P-Frames: Y:0.5% UV:0.0%
[libx264 @ 0x3758120] ref P L0: 79.0% 21.0%
[libx264 @ 0x3758120] ref B L0: 91.2%  8.8%
[libx264 @ 0x3758120] ref B L1: 96.6%  3.4%
[libx264 @ 0x3758120] kb/s:7060.17
